# xmcd
#
# Track frame offsets: 
#        150
#        33054
#        62747
#        85852
#        111020
#        133431
#        156610
#        186521
#        213588
#        236571
#        256506
#        290269
#
# Disc length: 4590 seconds
#
# Revision: 0
# Processed by: cddbd v1.5.2PL0 Copyright (c) Steve Scherf et al.
# Submitted via: ExactAudioCopy v0.99pb4
#
DISCID=ad11ec0c
DTITLE=Various Artist - Blastorama
DYEAR=2008
DGENRE=Drum and Bass
TTITLE0=Гости из будущего/Зима (Blasta Cover version)
TTITLE1=Tomato Jaws/Don't Save (Blasta rmx)
TTITLE2=Blasta/Reach U
TTITLE3=Blasta/On My Mind
TTITLE4=Blasta/Close to Urself
TTITLE5=Blasta/Rainbow In Ur Eyes
TTITLE6=Blasta/Огни
TTITLE7=Blasta/Мог ли это быть я? (2008 VIP re-lick)
TTITLE8=Blasta/Every Move
TTITLE9=Blasta/Аэробар
TTITLE10=Blasta/Leaving Leaves
TTITLE11=lasta/Так много капель в дожде
EXTD=
EXTT0=
EXTT1=
EXTT2=
EXTT3=
EXTT4=
EXTT5=
EXTT6=
EXTT7=
EXTT8=
EXTT9=
EXTT10=
EXTT11=
PLAYORDER=
